<?xml version="1.0" encoding="UTF-8" standalone="no"?>
<svg width="162px" height="232px" viewBox="0 0 162 232" version="1.1" xmlns="http://www.w3.org/2000/svg" xmlns:xlink="http://www.w3.org/1999/xlink">
    <title>Descovrir</title>
    <g id="Page 1" stroke="none" stroke-width="1" fill="none" fill-rule="evenodd">
        <g id="Group" transform="translate(9.000000, 74.000000)" fill="#343115">
            <path d="M39.2451164,12.7268066 C60.0820304,8.33203125 64.6835937,16.953125 67.0344244,29.2358398 C69.1106281,40.083669 67.0344249,0.600585937 67.0344249,0.600585937 C67.0344249,0.600585937 35.4594535,13.5252519 39.2451164,12.7268066 Z M39.2451164,12.7268066" id="Path 4"></path>
            <path d="M77.3579211,12.7268066 C98.1948351,8.33203125 102.796398,16.953125 105.147229,29.2358398 C107.223433,40.083669 105.14723,0.600585937 105.14723,0.600585937 C105.14723,0.600585937 73.5722581,13.5252519 77.3579211,12.7268066 Z M77.3579211,12.7268066" id="Path 4 copy" transform="translate(91.556402, 15.861310) scale(-1, 1) translate(-91.556402, -15.861310) "></path>
            <path d="M114.157876,90.4768066 C134.99479,86.0820312 139.596354,94.703125 141.947184,106.98584 C144.023388,117.833669 141.947185,78.3505859 141.947185,78.3505859 C141.947185,78.3505859 110.372213,91.2752519 114.157876,90.4768066 Z M114.157876,90.4768066" id="Path 4 copy 2" transform="translate(128.356358, 93.611310) scale(-1, 1) rotate(-90.000000) translate(-128.356358, -93.611310) "></path>
            <path d="M1.15787631,90.4768066 C21.9947903,86.0820312 26.5963535,94.703125 28.9471843,106.98584 C31.023388,117.833669 28.9471848,78.3505859 28.9471848,78.3505859 C28.9471848,78.3505859 -2.62778668,91.2752519 1.15787631,90.4768066 Z M1.15787631,90.4768066" id="Path 4 copy 3" transform="translate(15.356358, 93.611310) rotate(-90.000000) translate(-15.356358, -93.611310) "></path>
            <path d="M114.157876,52.4768066 C134.99479,48.0820312 139.596354,56.703125 141.947184,68.9858398 C144.023388,79.833669 141.947185,40.3505859 141.947185,40.3505859 C141.947185,40.3505859 110.372213,53.2752519 114.157876,52.4768066 Z M114.157876,52.4768066" id="Path 4 copy 4" transform="translate(128.356358, 55.611310) scale(-1, -1) rotate(-90.000000) translate(-128.356358, -55.611310) "></path>
            <path d="M1.06224274,52.2541869 C21.8991567,47.8594115 26.50072,56.4805052 28.8515507,68.7632201 C30.9277544,79.6110493 28.8515512,40.1279662 28.8515512,40.1279662 C28.8515512,40.1279662 -2.72342025,53.0526321 1.06224274,52.2541869 Z M1.06224274,52.2541869" id="Path 4 copy 5" transform="translate(15.260724, 55.388690) scale(1, -1) rotate(-90.000000) translate(-15.260724, -55.388690) "></path>
            <path d="M77.3579211,129.726807 C98.1948351,125.332031 102.796398,133.953125 105.147229,146.23584 C107.223433,157.083669 105.14723,117.600586 105.14723,117.600586 C105.14723,117.600586 73.5722581,130.525252 77.3579211,129.726807 Z M77.3579211,129.726807" id="Path 4 copy 2" transform="translate(91.556402, 132.861310) scale(-1, -1) translate(-91.556402, -132.861310) "></path>
            <path d="M39.2451164,129.726807 C60.0820304,125.332031 64.6835937,133.953125 67.0344244,146.23584 C69.1106281,157.083669 67.0344249,117.600586 67.0344249,117.600586 C67.0344249,117.600586 35.4594535,130.525252 39.2451164,129.726807 Z M39.2451164,129.726807" id="Path 4 copy 3" transform="translate(53.443598, 132.861310) scale(1, -1) translate(-53.443598, -132.861310) "></path>
        </g>
        <path d="M50.0615234,40.8036973 C73.3017584,55.2387555 74.7614743,58.4838724 77.112305,70.7665872 C79.1885087,81.6144164 78.4365238,41.8452012 78.4365238,41.8452012 C78.4365238,41.8452012 46.5850711,38.6443902 50.0615234,40.8036973 Z M50.0615234,40.8036973" id="Path 4 copy 4" fill="#343115" transform="translate(64.182776, 56.348382) scale(1, -1) translate(-64.182776, -56.348382) "></path>
        <path d="M84.0615234,40.8036973 C107.301758,55.2387555 108.761474,58.4838724 111.112305,70.7665872 C113.188509,81.6144164 112.436524,41.8452012 112.436524,41.8452012 C112.436524,41.8452012 80.5850711,38.6443902 84.0615234,40.8036973 Z M84.0615234,40.8036973" id="Path 4 copy 5" fill="#343115" transform="translate(98.182776, 56.348382) scale(-1, -1) translate(-98.182776, -56.348382) "></path>
        <path d="M81,225 C121.869074,225 155,190.749785 155,148.5 C155,106.250215 121.869074,72 81,72 C40.1309265,72 7,106.250215 7,148.5 C7,190.749785 40.1309265,225 81,225 Z M81,225" id="Oval 1" stroke="#6C6733" stroke-width="13"></path>
        <path d="M81,33.5 L81,63" id="Line" stroke="#6C6733" stroke-width="8" stroke-linecap="square"></path>
        <path d="M81.5,79.5 L81.5,220.514191" id="Line" stroke="#6C6733" stroke-width="11" stroke-linecap="square"></path>
        <path d="M81,29 C88.1797021,29 94,23.1797021 94,16 C94,8.8202979 88.1797021,3 81,3 C73.8202979,3 68,8.8202979 68,16 C68,23.1797021 73.8202979,29 81,29 Z M81,29" id="Oval 2" stroke="#343115" stroke-width="5"></path>
        <path d="M13.5,148.5 L146.5,148.5" id="Line" stroke="#6C6733" stroke-width="11" stroke-linecap="square"></path>
        <g id="Group" transform="translate(15.000000, 105.000000)" fill="#AAA354">
            <path d="M56.0889683,29.2677172 C51.6680313,29.2677172 48.0841538,32.8550728 48.0841538,37.2599301 L48.0841538,48.7159233 C48.0841538,53.1299006 51.6686622,56.7081362 56.0889683,56.7081362 L77.286939,56.7081362 C81.7078759,56.7081362 85.2917534,53.1207806 85.2917534,48.7159233 L85.2917534,37.2599301 C85.2917534,32.8459528 81.707245,29.2677172 77.286939,29.2677172 L56.0889683,29.2677172 Z M56.0889683,29.2677172" id="Rectangle 1" transform="translate(66.687954, 42.987927) rotate(-31.000000) translate(-66.687954, -42.987927) "></path>
            <path d="M72.15625,25.1376953 L101.415039,7.83203125 L135.007812,0.90625 L79.1191406,36.0917969 L72.15625,25.1376953 Z M72.15625,25.1376953" id="Path 13"></path>
            <path d="M0.573242188,74.3586371 L29.8320312,57.0529731 L63.4248047,50.1271918 L7.53613281,85.3127387 L0.573242188,74.3586371 Z M0.573242188,74.3586371" id="Path 13 copy" transform="translate(31.999023, 67.719965) rotate(-180.000000) translate(-31.999023, -67.719965) "></path>
        </g>
    </g>
</svg>