<?xml version="1.0" encoding="UTF-8" standalone="no"?> <svg width="270.0px" height="365.0px" viewBox="0 0 270.0 365.0" version="1.1" xmlns="http://www.w3.org/2000/svg" xmlns:xlink="http://www.w3.org/1999/xlink"><title>Sagefy</title><g><path d="M 20.0 220.0 L 70.0 221.0 Q 20.0 220.0 35.0 170.0 L 20.0 170.0" fill="#969272" stroke="#969272"/><path d="M 20.0 240.0 L 70.0 239.0 Q 20.0 240.0 35.0 290.0 L 20.0 290.0" fill="#969272" stroke="#969272"/><path transform="rotate(90 135.0 230.0)" d="M 20.0 220.0 L 70.0 221.0 Q 20.0 220.0 35.0 170.0 L 20.0 170.0" fill="#969272" stroke="#969272"/><path transform="rotate(90 135.0 230.0)" d="M 20.0 240.0 L 70.0 239.0 Q 20.0 240.0 35.0 290.0 L 20.0 290.0" fill="#969272" stroke="#969272"/><path transform="rotate(180 135.0 230.0)" d="M 20.0 220.0 L 70.0 221.0 Q 20.0 220.0 35.0 170.0 L 20.0 170.0" fill="#969272" stroke="#969272"/><path transform="rotate(180 135.0 230.0)" d="M 20.0 240.0 L 70.0 239.0 Q 20.0 240.0 35.0 290.0 L 20.0 290.0" fill="#969272" stroke="#969272"/><path transform="rotate(270 135.0 230.0)" d="M 20.0 220.0 L 70.0 221.0 Q 20.0 220.0 35.0 170.0 L 20.0 170.0" fill="#969272" stroke="#969272"/><path transform="rotate(270 135.0 230.0)" d="M 20.0 240.0 L 70.0 239.0 Q 20.0 240.0 35.0 290.0 L 20.0 290.0" fill="#969272" stroke="#969272"/></g><g><path d="M 127.5 95.0 L 128.5 60.0 Q 127.5 95.0 78.5 108.0" fill="#969272" stroke="#969272"/><path d="M 142.5 95.0 L 141.5 60.0 Q 142.5 95.0 191.5 108.0" fill="#969272" stroke="#969272"/><line x1="135.0" y1="55.0" x2="135.0" y2="105.0" stroke="#ccc7a8" stroke-width="15.0"/><circle cx="135.0" cy="30.0" r="25.0" fill="none" stroke="#969272" stroke-width="10.0"/></g><g><line x1="10.0" y1="230.0" x2="260.0" y2="230.0" stroke="#ccc7a8" stroke-width="20.0"/><line x1="135.0" y1="105.0" x2="135.0" y2="355.0" stroke="#ccc7a8" stroke-width="20.0"/><circle cx="135.0" cy="230.0" r="125.0" fill="none" stroke="#ccc7a8" stroke-width="20.0"/></g><g transform="rotate(-30 135.0 230.0)"><rect x="95.0" y="205.0" width="80.0" height="50.0" fill="#fcfcfb" stroke="#fcfcfb"/><path d="M 175.0 230.0 L 260.0 230.0 Q 217.5 205.0 175.0 205.0" fill="#fcfcfb" stroke="none"/><path d="M 95.0 230.0 L 10.0 230.0 Q 52.5 255.0 95.0 255.0" fill="#fcfcfb" stroke="none"/></g></svg>
