<?xml version="1.0" encoding="UTF-8" standalone="no"?>
<svg width="162px" height="232px" viewBox="0 0 162 232" version="1.1" xmlns="http://www.w3.org/2000/svg" xmlns:xlink="http://www.w3.org/1999/xlink" xmlns:sketch="http://www.bohemiancoding.com/sketch/ns">
    <title>MUSEUM-popup@2x</title>
    <description>Created with Sketch (http://www.bohemiancoding.com/sketch)</description>
    <defs></defs>
    <g id="Page-1" stroke="none" stroke-width="1" fill="none" fill-rule="evenodd" sketch:type="MSPage">
        <g id="Group" sketch:type="MSLayerGroup" transform="translate(9.000000, 75.000000)" fill-opacity="0.5" fill="#F8F7EF">
            <path d="M39.2451164,11.7268066 C60.0820304,7.33203125 64.6835937,15.953125 67.0344244,28.2358398 C69.1106281,39.083669 67.0344249,-0.399414063 67.0344249,-0.399414063 C67.0344249,-0.399414063 35.4594535,12.5252519 39.2451164,11.7268066 Z" id="Path-4" sketch:type="MSShapeGroup"></path>
            <path d="M77.3579211,11.7268066 C98.1948351,7.33203125 102.796398,15.953125 105.147229,28.2358398 C107.223433,39.083669 105.14723,-0.399414063 105.14723,-0.399414063 C105.14723,-0.399414063 73.5722581,12.5252519 77.3579211,11.7268066 Z" id="Path-4-copy" sketch:type="MSShapeGroup" transform="translate(91.556402, 14.861310) scale(-1, 1) translate(-91.556402, -14.861310) "></path>
            <path d="M114.157876,89.4768066 C134.99479,85.0820312 139.596354,93.703125 141.947184,105.98584 C144.023388,116.833669 141.947185,77.3505859 141.947185,77.3505859 C141.947185,77.3505859 110.372213,90.2752519 114.157876,89.4768066 Z" id="Path-4-copy-2" sketch:type="MSShapeGroup" transform="translate(128.356358, 92.611310) scale(-1, 1) rotate(-90.000000) translate(-128.356358, -92.611310) "></path>
            <path d="M1.15787631,89.4768066 C21.9947903,85.0820312 26.5963535,93.703125 28.9471843,105.98584 C31.023388,116.833669 28.9471848,77.3505859 28.9471848,77.3505859 C28.9471848,77.3505859 -2.62778668,90.2752519 1.15787631,89.4768066 Z" id="Path-4-copy-3" sketch:type="MSShapeGroup" transform="translate(15.356358, 92.611310) rotate(-90.000000) translate(-15.356358, -92.611310) "></path>
            <path d="M114.157876,51.4768066 C134.99479,47.0820312 139.596354,55.703125 141.947184,67.9858398 C144.023388,78.833669 141.947185,39.3505859 141.947185,39.3505859 C141.947185,39.3505859 110.372213,52.2752519 114.157876,51.4768066 Z" id="Path-4-copy-4" sketch:type="MSShapeGroup" transform="translate(128.356358, 54.611310) scale(-1, -1) rotate(-90.000000) translate(-128.356358, -54.611310) "></path>
            <path d="M1.06224274,51.2541869 C21.8991567,46.8594115 26.50072,55.4805052 28.8515507,67.7632201 C30.9277544,78.6110493 28.8515512,39.1279662 28.8515512,39.1279662 C28.8515512,39.1279662 -2.72342025,52.0526321 1.06224274,51.2541869 Z" id="Path-4-copy-5" sketch:type="MSShapeGroup" transform="translate(15.260724, 54.388690) scale(1, -1) rotate(-90.000000) translate(-15.260724, -54.388690) "></path>
            <path d="M77.3579211,128.726807 C98.1948351,124.332031 102.796398,132.953125 105.147229,145.23584 C107.223433,156.083669 105.14723,116.600586 105.14723,116.600586 C105.14723,116.600586 73.5722581,129.525252 77.3579211,128.726807 Z" id="Path-4-copy-2" sketch:type="MSShapeGroup" transform="translate(91.556402, 131.861310) scale(-1, -1) translate(-91.556402, -131.861310) "></path>
            <path d="M39.2451164,128.726807 C60.0820304,124.332031 64.6835937,132.953125 67.0344244,145.23584 C69.1106281,156.083669 67.0344249,116.600586 67.0344249,116.600586 C67.0344249,116.600586 35.4594535,129.525252 39.2451164,128.726807 Z" id="Path-4-copy-3" sketch:type="MSShapeGroup" transform="translate(53.443598, 131.861310) scale(1, -1) translate(-53.443598, -131.861310) "></path>
        </g>
        <path d="M50.0615234,40.8036973 C73.3017584,55.2387555 74.7614743,58.4838724 77.112305,70.7665872 C79.1885087,81.6144164 78.4365238,41.8452012 78.4365238,41.8452012 C78.4365238,41.8452012 46.5850711,38.6443902 50.0615234,40.8036973 Z" id="Path-4-copy-4" fill-opacity="0.5" fill="#F8F7EF" sketch:type="MSShapeGroup" transform="translate(64.182776, 56.348382) scale(1, -1) translate(-64.182776, -56.348382) "></path>
        <path d="M84.0615234,40.8036973 C107.301758,55.2387555 108.761474,58.4838724 111.112305,70.7665872 C113.188509,81.6144164 112.436524,41.8452012 112.436524,41.8452012 C112.436524,41.8452012 80.5850711,38.6443902 84.0615234,40.8036973 Z" id="Path-4-copy-5" fill-opacity="0.5" fill="#F8F7EF" sketch:type="MSShapeGroup" transform="translate(98.182776, 56.348382) scale(-1, -1) translate(-98.182776, -56.348382) "></path>
        <path d="M81,225 C121.869074,225 155,190.749785 155,148.5 C155,106.250215 121.869074,72 81,72 C40.1309265,72 7,106.250215 7,148.5 C7,190.749785 40.1309265,225 81,225 Z" id="Oval-1" stroke="#E7E3C7" stroke-width="13" sketch:type="MSShapeGroup"></path>
        <path d="M81,33.5 L81,63" id="Line" stroke="#E7E3C7" stroke-width="8" stroke-linecap="square" sketch:type="MSShapeGroup"></path>
        <path d="M81.5,79.5 L81.5,220.514191" id="Line" stroke="#E7E3C7" stroke-width="11" stroke-linecap="square" sketch:type="MSShapeGroup"></path>
        <circle id="Oval-2" stroke-opacity="0.5" stroke="#F8F7EF" stroke-width="5" sketch:type="MSShapeGroup" cx="81" cy="16" r="13"></circle>
        <path d="M13.5,148.5 L146.5,148.5" id="Line" stroke="#E7E3C7" stroke-width="11" stroke-linecap="square" sketch:type="MSShapeGroup"></path>
        <g id="Group" sketch:type="MSLayerGroup" transform="translate(15.000000, 106.000000)" fill="#CBC475">
            <rect id="Rectangle-1" sketch:type="MSShapeGroup" transform="translate(66.687954, 41.987927) rotate(-31.000000) translate(-66.687954, -41.987927) " x="48.0841538" y="28.2677172" width="37.2075996" height="27.440419" rx="8"></rect>
            <path d="M72.15625,24.1376953 L101.415039,6.83203125 L135.007812,-0.09375 L79.1191406,35.0917969 L72.15625,24.1376953 Z" id="Path-13" sketch:type="MSShapeGroup"></path>
            <path d="M0.424804688,73.544184 L29.6835938,56.2385199 L63.2763672,49.3127387 L7.38769531,84.4982856 L0.424804688,73.544184 Z" id="Path-13-copy" sketch:type="MSShapeGroup" transform="translate(31.924805, 66.812739) rotate(-180.000000) translate(-31.924805, -66.812739) "></path>
        </g>
    </g>
</svg>