<?xml version="1.0" encoding="UTF-8" standalone="no"?><svg width="270.0px" height="365.0px" viewBox="0 0 270.0 365.0" version="1.1" xmlns="http://www.w3.org/2000/svg" xmlns:xlink="http://www.w3.org/1999/xlink" ><title>Sagefy</title><g><path d="M 20.0 220.0 L 70.0 221.0 Q 20.0 220.0 35.0 170.0 L 20.0 170.0" fill="rgba(255, 255, 255, 0.5)" stroke="rgba(255, 255, 255, 0.5)" /><path d="M 20.0 240.0 L 70.0 239.0 Q 20.0 240.0 35.0 290.0 L 20.0 290.0" fill="rgba(255, 255, 255, 0.5)" stroke="rgba(255, 255, 255, 0.5)" /><path transform="rotate(90 135.0 230.0)" d="M 20.0 220.0 L 70.0 221.0 Q 20.0 220.0 35.0 170.0 L 20.0 170.0" fill="rgba(255, 255, 255, 0.5)" stroke="rgba(255, 255, 255, 0.5)" /><path transform="rotate(90 135.0 230.0)" d="M 20.0 240.0 L 70.0 239.0 Q 20.0 240.0 35.0 290.0 L 20.0 290.0" fill="rgba(255, 255, 255, 0.5)" stroke="rgba(255, 255, 255, 0.5)" /><path transform="rotate(180 135.0 230.0)" d="M 20.0 220.0 L 70.0 221.0 Q 20.0 220.0 35.0 170.0 L 20.0 170.0" fill="rgba(255, 255, 255, 0.5)" stroke="rgba(255, 255, 255, 0.5)" /><path transform="rotate(180 135.0 230.0)" d="M 20.0 240.0 L 70.0 239.0 Q 20.0 240.0 35.0 290.0 L 20.0 290.0" fill="rgba(255, 255, 255, 0.5)" stroke="rgba(255, 255, 255, 0.5)" /><path transform="rotate(270 135.0 230.0)" d="M 20.0 220.0 L 70.0 221.0 Q 20.0 220.0 35.0 170.0 L 20.0 170.0" fill="rgba(255, 255, 255, 0.5)" stroke="rgba(255, 255, 255, 0.5)" /><path transform="rotate(270 135.0 230.0)" d="M 20.0 240.0 L 70.0 239.0 Q 20.0 240.0 35.0 290.0 L 20.0 290.0" fill="rgba(255, 255, 255, 0.5)" stroke="rgba(255, 255, 255, 0.5)" /></g><g><path d="M 127.5 95.0 L 128.5 60.0 Q 127.5 95.0 78.5 108.0" fill="rgba(255, 255, 255, 0.5)" stroke="rgba(255, 255, 255, 0.5)" /><path d="M 142.5 95.0 L 141.5 60.0 Q 142.5 95.0 191.5 108.0" fill="rgba(255, 255, 255, 0.5)" stroke="rgba(255, 255, 255, 0.5)" /><line x1="135.0" y1="55.0" x2="135.0" y2="105.0" stroke="rgba(255, 255, 255, 0.7)" stroke-width="15.0" /><circle cx="135.0" cy="30.0" r="25.0" fill="none" stroke="rgba(255, 255, 255, 0.9)" stroke-width="10.0" /></g><g><line x1="10.0" y1="230.0" x2="260.0" y2="230.0" stroke="rgba(255, 255, 255, 0.7)" stroke-width="20.0" /><line x1="135.0" y1="105.0" x2="135.0" y2="355.0" stroke="rgba(255, 255, 255, 0.7)" stroke-width="20.0" /><circle cx="135.0" cy="230.0" r="125.0" fill="none" stroke="rgba(255, 255, 255, 0.7)" stroke-width="20.0" /></g><g transform="rotate(-30 135.0 230.0)"><rect x="95.0" y="205.0" width="80.0" height="50.0" rx="10.0" ry="10.0" fill="rgba(255, 255, 255, 0.9)" stroke="rgba(255, 255, 255, 0.9)" /><path d="M 175.0 230.0 L 260.0 230.0 Q 217.5 215.0 175.0 215.0" fill="rgba(255, 255, 255, 0.9)" stroke="none" /><path d="M 95.0 230.0 L 10.0 230.0 Q 52.5 245.0 95.0 245.0" fill="rgba(255, 255, 255, 0.9)" stroke="none" /></g></svg>
